<svg width="20" height="20" viewBox="0 0 20 20" fill="none" xmlns="http://www.w3.org/2000/svg">
<path fill-rule="evenodd" clip-rule="evenodd" d="M1.66663 9.99997C1.66663 6.85747 1.66663 5.28581 2.64329 4.30998C3.61996 3.33415 5.19079 3.33331 8.33328 3.33331H11.6666C14.8091 3.33331 16.3808 3.33331 17.3566 4.30998C18.3324 5.28664 18.3333 6.85747 18.3333 9.99997V11.6666C18.3333 14.8091 18.3333 16.3808 17.3566 17.3566C16.3799 18.3325 14.8091 18.3333 11.6666 18.3333H8.33328C5.19079 18.3333 3.61912 18.3333 2.64329 17.3566C1.66746 16.38 1.66663 14.8091 1.66663 11.6666V9.99997Z" stroke="#888888" stroke-width="1.25"/>
<path d="M5.83326 3.33332V2.08331M14.1666 3.33332V2.08331M2.08325 7.49999H17.9166" stroke="#888888" stroke-width="1.25" stroke-linecap="round"/>
<path fill-rule="evenodd" clip-rule="evenodd" d="M15 14.1667C15 14.6269 14.6269 15 14.1667 15C13.7064 15 13.3333 14.6269 13.3333 14.1667C13.3333 13.7064 13.7064 13.3333 14.1667 13.3333C14.6269 13.3333 15 13.7064 15 14.1667Z" fill="#888888"/>
<path fill-rule="evenodd" clip-rule="evenodd" d="M15 10.8333C15 11.2936 14.6269 11.6667 14.1667 11.6667C13.7064 11.6667 13.3333 11.2936 13.3333 10.8333C13.3333 10.3731 13.7064 10 14.1667 10C14.6269 10 15 10.3731 15 10.8333Z" fill="#888888"/>
<path fill-rule="evenodd" clip-rule="evenodd" d="M10.8333 14.1667C10.8333 14.6269 10.4602 15 10 15C9.53976 15 9.16667 14.6269 9.16667 14.1667C9.16667 13.7064 9.53976 13.3333 10 13.3333C10.4602 13.3333 10.8333 13.7064 10.8333 14.1667Z" fill="#888888"/>
<path fill-rule="evenodd" clip-rule="evenodd" d="M10.8333 10.8333C10.8333 11.2936 10.4602 11.6667 10 11.6667C9.53976 11.6667 9.16667 11.2936 9.16667 10.8333C9.16667 10.3731 9.53976 10 10 10C10.4602 10 10.8333 10.3731 10.8333 10.8333Z" fill="#888888"/>
<path fill-rule="evenodd" clip-rule="evenodd" d="M6.66667 14.1667C6.66667 14.6269 6.29357 15 5.83333 15C5.3731 15 5 14.6269 5 14.1667C5 13.7064 5.3731 13.3333 5.83333 13.3333C6.29357 13.3333 6.66667 13.7064 6.66667 14.1667Z" fill="#888888"/>
<path fill-rule="evenodd" clip-rule="evenodd" d="M6.66667 10.8333C6.66667 11.2936 6.29357 11.6667 5.83333 11.6667C5.3731 11.6667 5 11.2936 5 10.8333C5 10.3731 5.3731 10 5.83333 10C6.29357 10 6.66667 10.3731 6.66667 10.8333Z" fill="#888888"/>
</svg>
