<svg width="19" height="19" viewBox="0 0 19 19" fill="none" xmlns="http://www.w3.org/2000/svg">
<path fill-rule="evenodd" clip-rule="evenodd" d="M17.6137 11.5115L16.9881 11.3441L17.6137 11.5115Z" fill="currentColor"/>
<path fill-rule="evenodd" clip-rule="evenodd" d="M7.04515 17.6121L6.87776 18.2377L7.04515 17.6121Z" fill="currentColor"/>
<path fill-rule="evenodd" clip-rule="evenodd" d="M0.94285 7.04522L0.317261 6.87782L0.94285 7.04522Z" fill="currentColor"/>
<path fill-rule="evenodd" clip-rule="evenodd" d="M11.5106 0.944637L11.3432 1.56936L11.5106 0.944637Z" fill="currentColor"/>
<path fill-rule="evenodd" clip-rule="evenodd" d="M8.87015 9.78141C9.04896 9.93448 9.29677 9.97839 9.51729 9.89609C9.73781 9.81379 9.89625 9.61825 9.93105 9.38547C9.96585 9.15268 9.87152 8.91935 9.68471 8.77616L8.87015 9.78141Z" fill="currentColor"/>
<path fill-rule="evenodd" clip-rule="evenodd" d="M3.23984 4.39099L3.64712 3.88793L3.23984 4.39099Z" fill="currentColor"/>
<path fill-rule="evenodd" clip-rule="evenodd" d="M2.06115 4.54458L1.52012 4.1908L2.06115 4.54458Z" fill="currentColor"/>
<path fill-rule="evenodd" clip-rule="evenodd" d="M4.72055 1.20005C4.51349 1.31069 4.38258 1.52478 4.37847 1.75951C4.37436 1.99424 4.49769 2.21279 4.70075 2.33061C4.90381 2.44842 5.15475 2.44703 5.35649 2.32697L4.72055 1.20005Z" fill="currentColor"/>
<path fill-rule="evenodd" clip-rule="evenodd" d="M7.4369 3.75159C7.10249 3.86793 6.92365 4.23142 7.03555 4.56735C7.14744 4.90327 7.50853 5.08691 7.84591 4.97948L7.4369 3.75159Z" fill="currentColor"/>
<path fill-rule="evenodd" clip-rule="evenodd" d="M16.9881 11.345C15.847 15.6027 11.4703 18.1292 7.21255 16.9882L6.87776 18.2394C11.8264 19.5648 16.9131 16.6284 18.2385 11.6798L16.9881 11.345Z" fill="currentColor"/>
<path fill-rule="evenodd" clip-rule="evenodd" d="M7.21255 16.9882C2.95482 15.847 0.428287 11.4704 1.5693 7.21261L0.318124 6.87782C-1.00726 11.8256 1.92912 16.9123 6.87776 18.2377L7.21255 16.9882Z" fill="currentColor"/>
<path fill-rule="evenodd" clip-rule="evenodd" d="M11.344 1.5685C13.3889 2.11651 15.1322 3.45443 16.1906 5.2879C17.2489 7.12137 17.5355 9.30017 16.9873 11.345L18.2385 11.6798C19.5639 6.73113 16.6275 1.64443 11.6788 0.319048L11.344 1.5685Z" fill="currentColor"/>
<path fill-rule="evenodd" clip-rule="evenodd" d="M9.68557 8.77616L3.64712 3.88707L2.83256 4.89319L8.87101 9.78055L9.68557 8.77616Z" fill="currentColor"/>
<path fill-rule="evenodd" clip-rule="evenodd" d="M1.56844 7.21175C1.78702 6.39055 2.13604 5.60977 2.60217 4.89923L1.52098 4.18907C0.979114 5.01497 0.573289 5.92246 0.318987 6.87695L1.56844 7.21175Z" fill="currentColor"/>
<path fill-rule="evenodd" clip-rule="evenodd" d="M5.35649 2.32611C7.17561 1.29673 9.32588 1.02459 11.344 1.5685L11.6788 0.317322C9.23688 -0.33588 6.7604 0.0489654 4.72055 1.20005L5.35649 2.32611Z" fill="currentColor"/>
<path fill-rule="evenodd" clip-rule="evenodd" d="M3.64712 3.88793C3.01463 3.37538 2.01628 3.43319 1.52098 4.18907L2.60217 4.89923C2.62097 4.86954 2.65259 4.85038 2.6876 4.84745C2.74007 4.84286 2.79223 4.85931 2.83256 4.89319L3.64712 3.88793Z" fill="currentColor"/>
<path fill-rule="evenodd" clip-rule="evenodd" d="M13.8084 9.27835C13.8084 11.7803 11.7802 13.8085 9.27829 13.8085V15.1028C12.4951 15.1028 15.1027 12.4951 15.1027 9.27835H13.8084Z" fill="currentColor"/>
<path fill-rule="evenodd" clip-rule="evenodd" d="M9.27829 13.8085C6.77637 13.8085 4.74816 11.7803 4.74816 9.27835H3.45384C3.45384 12.4951 6.06154 15.1028 9.27829 15.1028V13.8085Z" fill="currentColor"/>
<path fill-rule="evenodd" clip-rule="evenodd" d="M9.27829 4.74822C11.7807 4.74822 13.8084 6.776 13.8084 9.27835H15.1027C15.1027 6.0616 12.4951 3.4539 9.27829 3.4539V4.74822Z" fill="currentColor"/>
<path fill-rule="evenodd" clip-rule="evenodd" d="M4.74816 9.27835C4.74816 8.18249 5.13646 7.18069 5.78189 6.39719L4.78268 5.574C3.92208 6.61648 3.45213 7.92654 3.45384 9.27835H4.74816Z" fill="currentColor"/>
<path fill-rule="evenodd" clip-rule="evenodd" d="M7.84591 4.97861C8.30771 4.82462 8.7915 4.74681 9.27829 4.74822V3.4539C8.63545 3.4539 8.01676 3.55745 7.4369 3.75073L7.84591 4.97861Z" fill="currentColor"/>
</svg>
